<?xml version="1.0" encoding="utf-8"?>
<!-- Generator: Adobe Illustrator 18.0.0, SVG Export Plug-In . SVG Version: 6.00 Build 0)  -->
<!DOCTYPE svg PUBLIC "-//W3C//DTD SVG 1.1//EN" "http://www.w3.org/Graphics/SVG/1.1/DTD/svg11.dtd">
<svg version="1.1" id="Capa_1" xmlns="http://www.w3.org/2000/svg" xmlns:xlink="http://www.w3.org/1999/xlink" x="0px" y="0px"
	 viewBox="0 0 390.2 390.2" enable-background="new 0 0 390.2 390.2" xml:space="preserve">
<g>
	<g>
		<g id="Layer_5_97_">
			<g>
				<path fill="#0066CC" d="M248.1,132.9H7.9c-4.4,0-7.9,3.6-7.9,7.9v240.1c0,4.4,3.6,7.9,7.9,7.9h240.1c4.4,0,7.9-3.6,7.9-7.9
					V140.8C256,136.5,252.4,132.9,248.1,132.9z"/>
				<path fill="#00CC33" d="M383.6,1.4H137.1c-3.6,0-6.6,3-6.6,6.6c0,0,0,56.8,0,104.5c0,4.2,4.3,4.4,4.3,4.4h134.8
					c3.3,0,5.3,3.1,5.3,5.7v134.1c0,0,0.2,4.5,4.4,4.5c47.7,0,104.4,0,104.4,0c3.6,0,6.6-3,6.6-6.6V8C390.2,4.3,387.2,1.4,383.6,1.4
					z"/>
			</g>
		</g>
	</g>
</g>
</svg>
